HIERARCHY
ROOT Hips
{
 OFFSET 0.000000 0.000000 0.000000
 CHANNELS 6 Xposition Yposition Zposition Yrotation Xrotation Zrotation
 JOINT Chest
 {
  OFFSET 0.000000 13.173100 -0.061900
  CHANNELS 3 Yrotation Xrotation Zrotation
  JOINT Chest2
  {
   OFFSET 0.000000 8.040800 0.126200
   CHANNELS 3 Yrotation Xrotation Zrotation
   JOINT Chest3
   {
    OFFSET 0.000000 7.994400 0.000000
    CHANNELS 3 Yrotation Xrotation Zrotation
    JOINT Chest4
    {
     OFFSET 0.000000 7.986200 0.000000
     CHANNELS 3 Yrotation Xrotation Zrotation
     JOINT Neck
     {
      OFFSET 0.000000 12.259400 0.000000
      CHANNELS 3 Yrotation Xrotation Zrotation
      JOINT Head
      {
       OFFSET 0.000000 7.518700 0.267100
       CHANNELS 3 Yrotation Xrotation Zrotation
       End Site
       {
        OFFSET 0.000000 13.617700 0.141000
       }
      }
     }
     JOINT RightCollar
     {
      OFFSET -2.983800 8.314300 0.000000
      CHANNELS 3 Yrotation Xrotation Zrotation
      JOINT RightShoulder
      {
       OFFSET -16.133400 0.000000 0.000000
       CHANNELS 3 Yrotation Xrotation Zrotation
       JOINT RightElbow
       {
        OFFSET 0.000000 -29.822100 0.000000
        CHANNELS 3 Yrotation Xrotation Zrotation
        JOINT RightWrist
        {
         OFFSET 0.000000 -24.437700 0.010900
         CHANNELS 3 Yrotation Xrotation Zrotation
         End Site
         {
          OFFSET 0.000000 -18.312300 0.000000
         }
        }
       }
      }
     }
     JOINT LeftCollar
     {
      OFFSET 2.983800 8.314300 0.000000
      CHANNELS 3 Yrotation Xrotation Zrotation
      JOINT LeftShoulder
      {
       OFFSET 16.133400 0.000000 0.000000
       CHANNELS 3 Yrotation Xrotation Zrotation
       JOINT LeftElbow
       {
        OFFSET 0.000000 -29.822100 0.000000
        CHANNELS 3 Yrotation Xrotation Zrotation
        JOINT LeftWrist
        {
         OFFSET 0.000000 -24.437700 0.010900
         CHANNELS 3 Yrotation Xrotation Zrotation
         End Site
         {
          OFFSET 0.000000 -18.312300 0.000000
         }
        }
       }
      }
     }
    }
   }
  }
 }
 JOINT RightHip
 {
  OFFSET -11.206700 0.306200 0.030900
  CHANNELS 3 Yrotation Xrotation Zrotation
  JOINT RightKnee
  {
   OFFSET 0.000000 -57.334900 0.009400
   CHANNELS 3 Yrotation Xrotation Zrotation
   JOINT RightAnkle
   {
    OFFSET 0.000000 -43.376200 0.036600
    CHANNELS 3 Yrotation Xrotation Zrotation
    JOINT RightToe
    {
     OFFSET 0.000000 -10.035500 18.363100
     CHANNELS 3 Yrotation Xrotation Zrotation
     End Site
     {
      OFFSET 0.000000 -1.618500 7.239000
     }
    }
   }
  }
 }
 JOINT LeftHip
 {
  OFFSET 11.206700 0.306200 0.030900
  CHANNELS 3 Yrotation Xrotation Zrotation
  JOINT LeftKnee
  {
   OFFSET 0.000000 -57.334900 0.009400
   CHANNELS 3 Yrotation Xrotation Zrotation
   JOINT LeftAnkle
   {
    OFFSET 0.000000 -43.376200 0.036600
    CHANNELS 3 Yrotation Xrotation Zrotation
    JOINT LeftToe
    {
     OFFSET 0.000000 -10.035500 18.363100
     CHANNELS 3 Yrotation Xrotation Zrotation
     End Site
     {
      OFFSET 0.000000 -1.618500 7.239000
     }
    }
   }
  }
 }
}
MOTION
Frames: 16
Frame Time: 0.008333
0.000000 110.232800 0.000000 0.000000 -5.767877 0.000000 0.000000 11.653817 0.000000 0.000000 -5.885947 0.000000 0.000000 -0.000000 0.000000 0.000000 -0.000000 0.000000 0.000000 12.528835 0.000000 0.000000 0.711642 0.000000 0.000000 -0.000000 0.000000 0.000000 0.000000 -90.000000 0.000000 -2.309062 0.000000 0.000000 2.309062 0.000000 0.000000 -0.000000 0.000000 0.000000 -0.000000 90.000000 0.000000 -2.309062 0.000000 0.000000 2.309062 0.000000 0.000000 8.520406 0.000000 0.000000 1.905762 0.000000 -0.000000 -4.658285 0.000000 0.000000 -0.000000 0.000000 0.000000 8.520406 0.000000 0.000000 1.905762 0.000000 -0.000000 -4.658285 0.000000 0.000000 -0.000000 0.000000
-96.924616 64.312521 88.213606 174.843675 -37.009573 -2.711845 1.922032 21.540400 1.991586 0.218459 2.950758 0.403172 0.364186 4.849820 0.661519 1.760623 18.352938 2.780774 1.701918 15.864388 -0.847603 3.471077 -6.264187 -2.187141 -4.368834 1.049447 -3.036387 -4.748460 -5.648321 5.834103 158.882097 -81.554467 -152.452623 4.271237 5.274254 10.422483 -5.387126 -0.706448 -1.235083 1.924626 -23.094026 3.420638 -172.221269 -55.629167 159.545051 -4.597674 -22.123525 17.249727 -2.396619 -44.555865 1.808431 -111.284548 86.360395 -106.752587 0.503698 -8.444720 -1.792186 0.377108 -0.744042 0.188893 -4.691684 -40.767139 3.597562 74.403305 82.925041 63.940204 -5.427045 -13.479804 7.676027 0.502043 1.241293 0.265485
-96.928746 64.313173 88.224101 174.833608 -36.990094 -2.716642 1.929312 21.562763 1.997024 0.212718 3.014931 0.399844 0.371634 4.830031 0.665501 1.771217 18.384835 2.784153 1.700942 15.761599 -0.853433 3.470660 -6.300368 -2.190720 -4.379291 1.040891 -3.046140 -4.785124 -5.618265 5.840852 158.987756 -81.555640 -152.553159 4.281233 5.284600 10.445997 -5.383277 -0.786376 -1.235127 1.921637 -23.194698 3.510761 -172.722295 -55.018985 159.835731 -4.614228 -22.297497 17.553122 -2.426217 -44.573890 1.823291 -110.989271 86.359677 -106.452848 0.521028 -8.425652 -1.809482 0.380686 -0.745810 0.189152 -4.692266 -40.785968 3.604715 74.326161 82.914318 63.870827 -5.425153 -13.480895 7.671872 0.501166 1.249262 0.266089
-96.933778 64.315273 88.234684 174.820822 -36.975534 -2.718713 1.926255 21.636090 1.989394 0.223485 2.981651 0.405838 0.374463 4.845756 0.666401 1.779876 18.410275 2.784101 1.705234 15.712796 -0.849591 3.473362 -6.393726 -2.194643 -4.385411 1.060147 -3.055670 -4.815493 -5.582906 5.845426 159.114449 -81.550765 -152.684053 4.297950 5.296582 10.479605 -5.375027 -0.843836 -1.233380 1.932861 -23.287602 3.605312 -173.206255 -54.413218 160.093845 -4.643243 -22.474492 17.853972 -2.453197 -44.585922 1.839814 -110.695026 86.364474 -106.161777 0.527732 -8.409772 -1.806205 0.386764 -0.744117 0.176793 -4.690594 -40.799533 3.612400 74.248269 82.903570 63.797142 -5.426042 -13.478434 7.670007 0.501060 1.252980 0.266756
-96.937704 64.317910 88.246335 174.785011 -36.960317 -2.713008 1.952054 21.665739 1.997316 0.226469 2.977088 0.406996 0.376279 4.876875 0.666356 1.786675 18.385362 2.783463 1.715409 15.789802 -0.838361 3.498445 -6.522000 -2.181089 -4.390264 1.131135 -3.070991 -4.839603 -5.541671 5.849025 159.233122 -81.535379 -152.815060 4.321525 5.309631 10.524092 -5.365864 -0.806991 -1.245982 1.936922 -23.420039 3.716378 -173.691055 -53.818149 160.341730 -4.682214 -22.663245 18.142096 -2.468732 -44.600194 1.864985 -110.351878 86.368181 -105.822301 0.548669 -8.392267 -1.816065 0.378889 -0.739995 0.176248 -4.677016 -40.814021 3.632666 74.197950 82.897647 63.747632 -5.428178 -13.475260 7.670786 0.500132 1.251118 0.267110
-96.944291 64.323800 88.254049 174.770216 -36.965011 -2.705902 1.960037 21.705935 1.994200 0.227764 3.001759 0.407312 0.379959 4.894412 0.667294 1.798443 18.437803 2.782530 1.724337 15.738120 -0.832144 3.511977 -6.572512 -2.174156 -4.397697 1.124773 -3.079886 -4.861938 -5.497749 5.853352 159.316043 -81.507927 -152.911921 4.346306 5.322298 10.572418 -5.362613 -0.775323 -1.265970 1.924982 -23.623490 3.852157 -174.182960 -53.237273 160.595205 -4.726314 -22.875595 18.410068 -2.485936 -44.591250 1.873738 -110.154573 86.378717 -105.639478 0.555803 -8.385719 -1.813966 0.367472 -0.736181 0.175106 -4.662478 -40.808594 3.629779 74.140043 82.889998 63.691001 -5.433488 -13.464171 7.671529 0.500594 1.242033 0.268996
-96.950329 64.327250 88.265182 174.753372 -36.950272 -2.698532 1.972484 21.702724 1.995179 0.226772 3.069728 0.406896 0.385921 4.898648 0.669387 1.815846 18.494653 2.784916 1.729205 15.688618 -0.828211 3.521698 -6.615196 -2.168853 -4.414528 1.112332 -3.089771 -4.883620 -5.454386 5.855336 159.382852 -81.472680 -152.991633 4.371759 5.331938 10.616036 -5.361614 -0.796670 -1.281101 1.901955 -23.779845 3.993737 -174.689065 -52.675712 160.866675 -4.768257 -23.116849 18.647744 -2.505167 -44.602775 1.885279 -109.827936 86.378779 -105.316872 0.554840 -8.376520 -1.813588 0.379685 -0.730726 0.168221 -4.647211 -40.820940 3.629268 74.021895 82.882304 63.575372 -5.435072 -13.458357 7.672678 0.499924 1.245983 0.269789
-96.952995 64.329705 88.277522 174.729096 -36.928153 -2.697665 1.993732 21.732632 2.006761 0.232059 3.085378 0.408510 0.391532 4.919835 0.671014 1.834241 18.527998 2.787260 1.731335 15.668204 -0.824323 3.524840 -6.653188 -2.163066 -4.438655 1.120265 -3.098934 -4.907121 -5.412719 5.852586 159.475039 -81.436571 -153.085832 4.399340 5.337424 10.644888 -5.365833 -0.818962 -1.290519 1.874832 -23.911822 4.141170 -175.208467 -52.138623 161.158295 -4.803247 -23.387801 18.850514 -2.531568 -44.621630 1.910850 -109.441397 86.381433 -104.927557 0.561909 -8.358307 -1.834104 0.387458 -0.728724 0.172813 -4.634920 -40.837743 3.647128 73.926968 82.871536 63.476633 -5.432271 -13.464862 7.676711 0.483727 1.257845 0.271263
-96.955180 64.335181 88.284484 174.716145 -36.930071 -2.698561 2.011667 21.847220 2.016131 0.237789 3.045033 0.409831 0.397586 4.943119 0.672552 1.854051 18.564658 2.788983 1.729623 15.648118 -0.820273 3.520758 -6.690538 -2.155691 -4.470138 1.120846 -3.104705 -4.934406 -5.373542 5.846941 159.617090 -81.400488 -153.214909 4.422744 5.339968 10.655045 -5.373423 -0.848170 -1.290360 1.839375 -24.036953 4.294213 -175.727727 -51.627270 161.458561 -4.837910 -23.689507 19.029702 -2.552769 -44.614452 1.927748 -109.201883 86.388290 -104.689588 0.563774 -8.347941 -1.844569 0.382595 -0.730999 0.183091 -4.604857 -40.830947 3.646846 73.858418 82.862088 63.419021 -5.442196 -13.468166 7.678341 0.481908 1.258903 0.276418
-96.957513 64.339877 88.290319 174.697676 -36.931647 -2.689538 2.035293 21.910865 2.021570 0.239037 3.039928 0.410005 0.406271 4.989695 0.675379 1.873881 18.604002 2.791134 1.725239 15.627150 -0.817200 3.505217 -6.773916 -2.155379 -4.508177 1.114324 -3.111833 -4.962599 -5.337876 5.838968 159.822772 -81.362892 -153.401943 4.436342 5.337644 10.652590 -5.381308 -0.885154 -1.284530 1.793832 -24.152689 4.453163 -176.229055 -51.137211 161.754139 -4.874064 -24.013021 19.195002 -2.569791 -44.610054 1.943422 -109.032914 86.395440 -104.533112 0.564777 -8.342245 -1.848736 0.382110 -0.730254 0.184904 -4.571872 -40.826071 3.643572 73.809719 82.853056 63.376019 -5.454878 -13.465031 7.678771 0.490177 1.253049 0.282655
-96.959503 64.342237 88.296677 174.667470 -36.923119 -2.669597 2.065854 21.968679 2.023762 0.242539 3.056917 0.411329 0.411959 5.015679 0.677484 1.891573 18.644685 2.793949 1.723581 15.607713 -0.815157 3.504777 -6.789252 -2.148564 -4.546285 1.104745 -3.122310 -4.985928 -5.305667 5.824733 160.114593 -81.324484 -153.674388 4.442614 5.329078 10.639845 -5.386170 -0.925373 -1.275052 1.743530 -24.260857 4.615214 -176.703381 -50.663725 162.038961 -4.911639 -24.334232 19.350830 -2.578321 -44.619250 1.958420 -108.894656 86.402252 -104.410751 0.564778 -8.338778 -1.852253 0.384455 -0.725532 0.183607 -4.526951 -40.831630 3.636924 73.761203 82.844800 63.330886 -5.465107 -13.462393 7.683387 0.489695 1.247767 0.285396
-96.958093 64.344160 88.301074 174.654974 -36.917644 -2.669077 2.082318 22.032476 2.033998 0.248237 3.095550 0.413701 0.414519 5.020493 0.678613 1.906789 18.685823 2.796652 1.729217 15.594299 -0.812503 3.518985 -6.790715 -2.142804 -4.577644 1.096647 -3.134687 -5.003979 -5.276913 5.803097 160.490958 -81.285817 -154.030444 4.445544 5.312658 10.618831 -5.383928 -0.962462 -1.263231 1.692821 -24.366722 4.778435 -177.151592 -50.207160 162.309451 -4.957985 -24.629839 19.504618 -2.587075 -44.623124 1.966793 -108.813639 86.412247 -104.314329 0.551675 -8.332068 -1.876348 0.401142 -0.727249 0.189198 -4.510867 -40.834239 3.645699 73.736352 82.839538 63.305713 -5.467116 -13.465451 7.688813 0.480105 1.246621 0.283586
-96.956656 64.345400 88.303007 174.644177 -36.915226 -2.664020 2.094359 22.101861 2.038634 0.251064 3.112594 0.415213 0.419096 5.046681 0.681047 1.920248 18.726646 2.800015 1.740707 15.589022 -0.809287 3.539356 -6.800200 -2.141145 -4.601175 1.091158 -3.149333 -5.024322 -5.252310 5.778556 160.901783 -81.244186 -154.419898 4.445662 5.286201 10.594497 -5.387750 -1.058456 -1.254346 1.656760 -24.409696 4.946998 -177.576224 -49.768104 162.562664 -5.012904 -24.886469 19.659932 -2.589503 -44.625363 1.972595 -108.790477 86.416519 -104.291430 0.550567 -8.331406 -1.878726 0.401539 -0.727958 0.191324 -4.500261 -40.835507 3.648712 73.724041 82.837968 63.293113 -5.463379 -13.465707 7.688162 0.483663 1.241865 0.282129
-96.955797 64.343429 88.305601 174.631193 -36.897674 -2.651518 2.106004 22.157285 2.038316 0.253627 3.129351 0.416841 0.423179 5.072393 0.683616 1.932028 18.766594 2.803971 1.755660 15.591518 -0.806529 3.566076 -6.795216 -2.141374 -4.623013 1.088662 -3.165789 -5.047980 -5.229508 5.755416 161.314017 -81.195545 -154.808189 4.442857 5.251850 10.569045 -5.373809 -1.052193 -1.243890 1.611113 -24.548093 5.109656 -177.977441 -49.345246 162.800666 -5.066888 -25.100323 19.813718 -2.602940 -44.646916 1.975841 -108.862764 86.426471 -104.372975 0.558988 -8.328226 -1.879872 0.394985 -0.732995 0.193427 -4.478828 -40.852881 3.651307 73.679518 82.846905 63.240299 -5.467022 -13.462781 7.700444 0.484597 1.237062 0.281236
-96.950222 64.342139 88.304620 174.605356 -36.891110 -2.647368 2.135627 22.222198 2.056419 0.256169 3.146012 0.418252 0.427242 5.097888 0.685751 1.943519 18.806191 2.806650 1.772343 15.599921 -0.804214 3.596105 -6.779165 -2.142778 -4.647667 1.087927 -3.182386 -5.071356 -5.205830 5.735919 161.720609 -81.139269 -155.188509 4.437652 5.212508 10.545526 -5.359778 -1.038289 -1.229499 1.567656 -24.685099 5.272055 -178.357370 -48.940452 163.029827 -5.119164 -25.277963 19.968677 -2.605090 -44.657045 1.991064 -108.926612 86.432187 -104.429356 0.568552 -8.321310 -1.888465 0.390269 -0.739145 0.191304 -4.468816 -40.859072 3.681204 73.701049 82.870148 63.247137 -5.455161 -13.468639 7.715182 0.472726 1.226747 0.272390
-96.944305 64.340357 88.300865 174.590534 -36.886871 -2.648599 2.157579 22.290187 2.074771 0.255162 3.117411 0.415505 0.435720 5.169563 0.691617 1.956588 18.846608 2.807987 1.787091 15.610422 -0.802942 3.622851 -6.759167 -2.145348 -4.672006 1.085598 -3.198064 -5.096168 -5.181386 5.717160 162.109824 -81.074913 -155.551658 4.431069 5.170443 10.525683 -5.354505 -1.055731 -1.216517 1.525861 -24.783369 5.442291 -178.723269 -48.558775 163.257469 -5.175794 -25.426146 20.129550 -2.612043 -44.664132 2.000155 -109.087392 86.435049 -104.570358 0.572824 -8.320147 -1.916130 0.395787 -0.746037 0.197332 -4.469292 -40.863929 3.719545 73.717034 82.904490 63.248733 -5.465144 -13.469656 7.719732 0.486528 1.217987 0.282127
